# xmcd
#
# Track frame offsets:
#	150
#	12879
#	29264
#	49473
#	65125
#	80723
#	98645
#	112086
#	124820
#	142490
#	162939
#	179771
#	198042
#	217126
#	231516
#	247703
#	264992
#	281767
#	299047
#	310764
#
# Disc length: 4383
#
# Revision: 1
# Processed by: cddbd v1.5.1PL0 Copyright (c) Steve Scherf et al.
# Submitted via: VisiTrax 2.9.5.180 - For more info visit www.synapsa.com
# Normalized: r0:DSETVAR1
#
DISCID=3f111d14
DTITLE=Various Artist - CDX 235 March 2000
DYEAR=2000
DGENRE=
TTITLE0=Billy Burnette - Are you with me baby
TTITLE1=Tamara Walker - Askin' too much
TTITLE2=Highway 101 - Bigger than the both of us
TTITLE3=Asleep at the Wheel - Cherokee maiden
TTITLE4=Tara Lyn Hart - Don't ever let me go
TTITLE5=Steve Wariner - Faith in you
TTITLE6=Brooks and Dunn - Goin' under gettin' over you
TTITLE7=Danni Leigh - Honey I do
TTITLE8=Lee Ann Womack - i hope you dance
TTITLE9=Reba McEntire - I'll be
TTITLE10=Lila McCann - Kiss me now
TTITLE11=Gary Allan - Lovin' you against my will
TTITLE12=Johnny Staats Project - Mandolin meltdown
TTITLE13=Charlie Robison - Poor man's son
TTITLE14=Kinleys - She ain't the girl for you
TTITLE15=Judds - Stuck in love
TTITLE16=Darryl Worley - When you need my love
TTITLE17=Lace - You coul've had me
TTITLE18=Royal Wade Kimes - Ride
TTITLE19=Blue Highway - That could be you
EXTD=
EXTT0=
EXTT1=
EXTT2=
EXTT3=
EXTT4=
EXTT5=
EXTT6=
EXTT7=
EXTT8=
EXTT9=
EXTT10=
EXTT11=
EXTT12=
EXTT13=
EXTT14=
EXTT15=
EXTT16=
EXTT17=
EXTT18=
EXTT19=
PLAYORDER=
